<svg width="289" height="340" viewBox="0 0 289 340" fill="none" xmlns="http://www.w3.org/2000/svg">
<path d="M19.0273 129.462H141.564C142.231 129.462 142.892 129.577 143.508 129.801C144.125 130.025 144.685 130.354 145.157 130.769C145.629 131.184 146.003 131.676 146.258 132.218C146.514 132.76 146.645 133.341 146.645 133.927V135.11C146.645 136.295 146.109 137.43 145.156 138.268C144.203 139.105 142.911 139.576 141.564 139.576H19.2763" fill="white"/>
<path d="M19.0273 129.462H141.564C142.231 129.462 142.892 129.577 143.508 129.801C144.125 130.025 144.685 130.354 145.157 130.769C145.629 131.184 146.003 131.676 146.258 132.218C146.514 132.76 146.645 133.341 146.645 133.927V135.11C146.645 136.295 146.109 137.43 145.156 138.268C144.203 139.105 142.911 139.576 141.564 139.576H19.2763" stroke="#141E32" stroke-width="6" stroke-miterlimit="10" stroke-linecap="round"/>
<path d="M112.365 189.182V139.741H123.429V188.955" fill="white"/>
<path d="M112.365 142.845V139.741H123.429V150.531L112.365 142.845Z" fill="#F0E1D4"/>
<path d="M112.365 185.408V139.741H123.429V188.477" stroke="#141E32" stroke-width="6" stroke-miterlimit="10" stroke-linecap="round"/>
<path d="M123.878 125.019V127.756L78.8933 118.143L33.9087 127.756V125.019L74.1839 113.542V79.6614H84.1891V113.711L123.878 125.019Z" fill="white" stroke="#E5BE77" stroke-width="6" stroke-miterlimit="10"/>
<path d="M148.959 102.678H20.8175C19.3068 102.678 18.068 101.551 17.9564 100.117C17.9458 99.9678 17.9267 99.8192 17.8992 99.6717L3.06742 28.9947C2.92844 28.4019 3.00552 27.7857 3.28772 27.2336C3.50591 26.7937 3.86265 26.4178 4.31586 26.1503C4.76907 25.8829 5.29983 25.735 5.84551 25.7241H133.987C135.498 25.7241 136.737 26.8537 136.848 28.2877C136.859 28.4361 136.878 28.5839 136.905 28.7305L151.731 99.41C151.87 100.003 151.793 100.619 151.511 101.171C151.293 101.61 150.937 101.985 150.485 102.252C150.033 102.519 149.503 102.667 148.959 102.678Z" fill="white" stroke="#E5BE77" stroke-width="6" stroke-miterlimit="10"/>
<path d="M145.396 99.2819H23.1537C21.6945 99.2819 20.5129 98.1397 20.5129 96.7258L6.77979 31.2541C6.77979 29.8427 7.96141 28.698 9.42055 28.698H131.66C133.116 28.698 134.3 29.8427 134.3 31.2541L148.034 96.7258C148.034 98.1397 146.852 99.2819 145.396 99.2819Z" fill="white" stroke="#E6CB9B" stroke-width="6" stroke-miterlimit="10"/>
<path d="M182.107 318.303L185.92 295.273C173.22 296.531 167.512 295.273 167.512 295.273L171.855 312.768C171.761 315.606 164.989 326.982 161.407 327.943C157.825 328.904 174.222 331.825 182.107 318.303Z" fill="#DC9996"/>
<path d="M151.997 337H183.145C183.145 337 188.461 328.195 187.631 322.333C186.57 314.786 181.835 313.903 181.835 313.903C177.466 313.903 178.59 323.483 170.253 326.821C166.099 328.484 162.546 327.44 158.952 328.404C150.921 330.557 151.997 337 151.997 337Z" fill="#141E32"/>
<path d="M134.441 211.87C137.208 216.328 154.927 247.643 167.515 295.272C167.515 295.272 173.418 296.91 185.923 295.272C185.923 295.272 197.313 237.63 184.759 219.212L134.441 211.87Z" fill="#D67470"/>
<path d="M233.322 153.028C233.322 153.028 251.195 192.39 241.639 207.4C225.714 232.394 134.443 211.87 134.443 211.87C134.443 211.87 154.37 233.398 131.193 294.892C131.193 294.892 130.357 297.393 112.45 295.395C112.45 295.395 90.4999 206.713 90.4971 187.814C90.4971 172.342 121.969 167.526 173.431 170.777C173.431 170.777 180.229 165.408 185.35 154.172C185.35 154.157 200.342 158.278 233.322 153.028Z" fill="#D67470"/>
<path d="M127.461 318.301L131.274 295.271C118.574 296.529 112.58 295.271 112.58 295.271L117.209 312.767C117.115 315.604 110.343 326.981 106.761 327.942C103.179 328.903 119.576 331.824 127.461 318.301Z" fill="#DC9996"/>
<path d="M97.3508 336.999H128.499C128.499 336.999 133.815 328.194 132.985 322.332C131.924 314.785 127.189 313.902 127.189 313.902C122.82 313.902 123.944 323.482 115.607 326.82C111.453 328.483 107.9 327.439 104.306 328.403C96.275 330.556 97.3508 336.999 97.3508 336.999Z" fill="#141E32"/>
<path d="M246.23 98.2882C241.212 116.317 234.214 147.815 234.016 152.087C233.819 156.358 199.784 159.088 184.634 155.161C184.634 155.161 180.448 133.993 179.401 122.526C171.462 132.337 163.362 139.96 157.857 139.96C137.658 139.96 104.338 130 101.812 127.61L103.28 120.893C111.631 121.064 152.613 116.727 152.613 116.727C152.613 116.727 168.898 80.2926 179.547 72.7677L179.593 72.7325C186.585 67.0568 204.739 65.2379 208.807 64.3573C213.016 63.4466 234.48 60.8855 234.48 60.8855C241.761 65.0215 250.696 82.2323 246.23 98.2882Z" fill="#8CBCAB"/>
<path d="M184.708 70.6586C184.707 71.0801 184.56 71.4914 184.286 71.8373C184.012 72.1832 183.624 72.4471 183.175 72.5938C182.725 72.7405 182.236 72.7629 181.771 72.6581C181.307 72.5532 180.89 72.3261 180.577 72.0071C181.814 71.1916 183.145 70.4918 184.548 69.9189C184.654 70.1544 184.708 70.4054 184.708 70.6586Z" fill="white"/>
<path d="M192.067 72.7264C193.364 72.7264 194.416 71.8017 194.416 70.661C194.416 69.5202 193.364 68.5955 192.067 68.5955C190.77 68.5955 189.718 69.5202 189.718 70.661C189.718 71.8017 190.77 72.7264 192.067 72.7264Z" fill="white"/>
<path d="M201.779 72.7264C203.076 72.7264 204.128 71.8017 204.128 70.661C204.128 69.5202 203.076 68.5955 201.779 68.5955C200.481 68.5955 199.43 69.5202 199.43 70.661C199.43 71.8017 200.481 72.7264 201.779 72.7264Z" fill="white"/>
<path d="M211.487 72.7264C212.784 72.7264 213.836 71.8017 213.836 70.661C213.836 69.5202 212.784 68.5955 211.487 68.5955C210.189 68.5955 209.138 69.5202 209.138 70.661C209.138 71.8017 210.189 72.7264 211.487 72.7264Z" fill="white"/>
<path d="M221.197 72.7264C222.494 72.7264 223.546 71.8017 223.546 70.661C223.546 69.5202 222.494 68.5955 221.197 68.5955C219.899 68.5955 218.848 69.5202 218.848 70.661C218.848 71.8017 219.899 72.7264 221.197 72.7264Z" fill="white"/>
<path d="M230.904 72.7264C232.201 72.7264 233.253 71.8017 233.253 70.661C233.253 69.5202 232.201 68.5955 230.904 68.5955C229.607 68.5955 228.555 69.5202 228.555 70.661C228.555 71.8017 229.607 72.7264 230.904 72.7264Z" fill="white"/>
<path d="M242.932 70.9907C242.86 71.3797 242.662 71.7423 242.363 72.0357C242.063 72.3291 241.675 72.541 241.242 72.6464C240.81 72.7518 240.353 72.7462 239.925 72.6305C239.496 72.5147 239.114 72.2934 238.824 71.9929C238.534 71.6924 238.348 71.3251 238.287 70.9345C238.227 70.5439 238.295 70.1462 238.483 69.7884C238.671 69.4307 238.972 69.1278 239.35 68.9155C239.728 68.7032 240.167 68.5905 240.615 68.5906C241.015 68.5851 241.41 68.6718 241.759 68.8422C242.157 69.5491 242.552 70.246 242.932 70.9907Z" fill="white"/>
<path d="M179.854 76.4426C179.859 76.949 179.653 77.4394 179.273 77.8203C178.894 78.2012 178.368 78.4461 177.796 78.5083C177.225 78.5704 176.647 78.4455 176.174 78.1574C175.7 77.8692 175.363 77.438 175.228 76.9457C175.971 76.0576 176.767 75.2044 177.611 74.3896C178.214 74.4129 178.782 74.6391 179.2 75.0214C179.618 75.4036 179.852 75.9125 179.854 76.4426Z" fill="white"/>
<path d="M187.213 78.5099C188.51 78.5099 189.562 77.5851 189.562 76.4444C189.562 75.3037 188.51 74.3789 187.213 74.3789C185.916 74.3789 184.864 75.3037 184.864 76.4444C184.864 77.5851 185.916 78.5099 187.213 78.5099Z" fill="white"/>
<path d="M196.924 78.5099C198.221 78.5099 199.273 77.5851 199.273 76.4444C199.273 75.3037 198.221 74.3789 196.924 74.3789C195.627 74.3789 194.575 75.3037 194.575 76.4444C194.575 77.5851 195.627 78.5099 196.924 78.5099Z" fill="white"/>
<path d="M206.631 78.5099C207.928 78.5099 208.98 77.5851 208.98 76.4444C208.98 75.3037 207.928 74.3789 206.631 74.3789C205.334 74.3789 204.282 75.3037 204.282 76.4444C204.282 77.5851 205.334 78.5099 206.631 78.5099Z" fill="white"/>
<path d="M216.34 78.5099C217.637 78.5099 218.689 77.5851 218.689 76.4444C218.689 75.3037 217.637 74.3789 216.34 74.3789C215.043 74.3789 213.991 75.3037 213.991 76.4444C213.991 77.5851 215.043 78.5099 216.34 78.5099Z" fill="white"/>
<path d="M226.05 78.5099C227.347 78.5099 228.399 77.5851 228.399 76.4444C228.399 75.3037 227.347 74.3789 226.05 74.3789C224.752 74.3789 223.701 75.3037 223.701 76.4444C223.701 77.5851 224.752 78.5099 226.05 78.5099Z" fill="white"/>
<path d="M235.759 78.5099C237.056 78.5099 238.108 77.5851 238.108 76.4444C238.108 75.3037 237.056 74.3789 235.759 74.3789C234.462 74.3789 233.41 75.3037 233.41 76.4444C233.41 77.5851 234.462 78.5099 235.759 78.5099Z" fill="white"/>
<path d="M245.87 78.4748C245.738 78.4973 245.604 78.5082 245.47 78.5075C244.93 78.5068 244.407 78.3428 243.989 78.0429C243.57 77.743 243.282 77.3256 243.173 76.8609C243.063 76.3962 243.139 75.9125 243.388 75.4912C243.636 75.0699 244.042 74.7367 244.537 74.5476C245.049 75.8055 245.484 77.1188 245.87 78.4748Z" fill="white"/>
<path d="M208.984 64.6005C208.983 65.1039 208.773 65.5898 208.394 65.9667C208.014 66.3437 207.491 66.5859 206.923 66.6477C206.355 66.7095 205.781 66.5866 205.308 66.3023C204.836 66.018 204.498 65.5917 204.357 65.1036C206.343 64.7891 207.914 64.5501 208.806 64.3489L208.958 64.3162C208.977 64.41 208.986 64.5052 208.984 64.6005Z" fill="white"/>
<path d="M218.689 64.6005C218.692 64.9245 218.609 65.2446 218.446 65.5351C218.282 65.8255 218.043 66.078 217.749 66.2723C217.454 66.4666 217.111 66.5971 216.748 66.6534C216.385 66.7097 216.012 66.6901 215.66 66.5962C215.307 66.5024 214.984 66.3369 214.718 66.1131C214.451 65.8893 214.249 65.6136 214.126 65.3081C214.003 65.0026 213.963 64.6761 214.011 64.3547C214.058 64.0334 214.19 63.7263 214.397 63.4583C215.467 63.3049 216.623 63.1489 217.831 62.9854C218.102 63.181 218.32 63.4277 218.468 63.7072C218.617 63.9867 218.692 64.292 218.689 64.6005Z" fill="white"/>
<path d="M226.049 66.6659C227.346 66.6659 228.398 65.7411 228.398 64.6004C228.398 63.4597 227.346 62.5349 226.049 62.5349C224.751 62.5349 223.7 63.4597 223.7 64.6004C223.7 65.7411 224.751 66.6659 226.049 66.6659Z" fill="white"/>
<path d="M235.759 66.6659C237.056 66.6659 238.108 65.7411 238.108 64.6004C238.108 63.4597 237.056 62.5349 235.759 62.5349C234.462 62.5349 233.41 63.4597 233.41 64.6004C233.41 65.7411 234.462 66.6659 235.759 66.6659Z" fill="white"/>
<path d="M182.358 84.8427C183.655 84.8427 184.707 83.9179 184.707 82.7772C184.707 81.6364 183.655 80.7117 182.358 80.7117C181.06 80.7117 180.009 81.6364 180.009 82.7772C180.009 83.9179 181.06 84.8427 182.358 84.8427Z" fill="white"/>
<path d="M175 82.7772C175.006 83.2705 174.811 83.7495 174.45 84.1272C174.089 84.5049 173.586 84.7565 173.033 84.8362C172.479 84.9159 171.911 84.8185 171.432 84.5617C170.953 84.3049 170.595 83.9057 170.422 83.4364C171.044 82.5005 171.663 81.6015 172.279 80.7394C172.4 80.72 172.522 80.7107 172.645 80.7117C172.954 80.7114 173.26 80.7646 173.545 80.8682C173.831 80.9718 174.09 81.1239 174.309 81.3157C174.527 81.5075 174.701 81.7353 174.819 81.986C174.938 82.2368 174.999 82.5057 175 82.7772Z" fill="white"/>
<path d="M192.067 84.8427C193.364 84.8427 194.416 83.9179 194.416 82.7772C194.416 81.6364 193.364 80.7117 192.067 80.7117C190.77 80.7117 189.718 81.6364 189.718 82.7772C189.718 83.9179 190.77 84.8427 192.067 84.8427Z" fill="white"/>
<path d="M201.779 84.8427C203.076 84.8427 204.128 83.9179 204.128 82.7772C204.128 81.6364 203.076 80.7117 201.779 80.7117C200.481 80.7117 199.43 81.6364 199.43 82.7772C199.43 83.9179 200.481 84.8427 201.779 84.8427Z" fill="white"/>
<path d="M211.487 84.8427C212.784 84.8427 213.836 83.9179 213.836 82.7772C213.836 81.6364 212.784 80.7117 211.487 80.7117C210.189 80.7117 209.138 81.6364 209.138 82.7772C209.138 83.9179 210.189 84.8427 211.487 84.8427Z" fill="white"/>
<path d="M221.197 84.8427C222.494 84.8427 223.546 83.9179 223.546 82.7772C223.546 81.6364 222.494 80.7117 221.197 80.7117C219.899 80.7117 218.848 81.6364 218.848 82.7772C218.848 83.9179 219.899 84.8427 221.197 84.8427Z" fill="white"/>
<path d="M230.904 84.8427C232.201 84.8427 233.253 83.9179 233.253 82.7772C233.253 81.6364 232.201 80.7117 230.904 80.7117C229.607 80.7117 228.555 81.6364 228.555 82.7772C228.555 83.9179 229.607 84.8427 230.904 84.8427Z" fill="white"/>
<path d="M240.615 84.8427C241.912 84.8427 242.964 83.9179 242.964 82.7772C242.964 81.6364 241.912 80.7117 240.615 80.7117C239.317 80.7117 238.266 81.6364 238.266 82.7772C238.266 83.9179 239.317 84.8427 240.615 84.8427Z" fill="white"/>
<path d="M177.506 90.6266C178.803 90.6266 179.855 89.7018 179.855 88.5611C179.855 87.4204 178.803 86.4956 177.506 86.4956C176.209 86.4956 175.157 87.4204 175.157 88.5611C175.157 89.7018 176.209 90.6266 177.506 90.6266Z" fill="white"/>
<path d="M170.143 88.5611C170.143 88.9567 170.014 89.3439 169.771 89.6768C169.528 90.0097 169.182 90.2743 168.773 90.4391C168.364 90.6039 167.91 90.662 167.465 90.6065C167.019 90.551 166.601 90.3842 166.261 90.126C166.967 88.9184 167.691 87.7284 168.409 86.5686C168.907 86.687 169.347 86.9463 169.66 87.3065C169.974 87.6667 170.143 88.1076 170.143 88.5611Z" fill="white"/>
<path d="M187.213 90.6266C188.51 90.6266 189.562 89.7018 189.562 88.5611C189.562 87.4204 188.51 86.4956 187.213 86.4956C185.916 86.4956 184.864 87.4204 184.864 88.5611C184.864 89.7018 185.916 90.6266 187.213 90.6266Z" fill="white"/>
<path d="M196.924 90.6266C198.221 90.6266 199.273 89.7018 199.273 88.5611C199.273 87.4204 198.221 86.4956 196.924 86.4956C195.627 86.4956 194.575 87.4204 194.575 88.5611C194.575 89.7018 195.627 90.6266 196.924 90.6266Z" fill="white"/>
<path d="M206.631 90.6266C207.928 90.6266 208.98 89.7018 208.98 88.5611C208.98 87.4204 207.928 86.4956 206.631 86.4956C205.334 86.4956 204.282 87.4204 204.282 88.5611C204.282 89.7018 205.334 90.6266 206.631 90.6266Z" fill="white"/>
<path d="M216.34 90.6266C217.637 90.6266 218.689 89.7018 218.689 88.5611C218.689 87.4204 217.637 86.4956 216.34 86.4956C215.043 86.4956 213.991 87.4204 213.991 88.5611C213.991 89.7018 215.043 90.6266 216.34 90.6266Z" fill="white"/>
<path d="M226.05 90.6266C227.347 90.6266 228.399 89.7018 228.399 88.5611C228.399 87.4204 227.347 86.4956 226.05 86.4956C224.752 86.4956 223.701 87.4204 223.701 88.5611C223.701 89.7018 224.752 90.6266 226.05 90.6266Z" fill="white"/>
<path d="M235.759 90.6266C237.056 90.6266 238.108 89.7018 238.108 88.5611C238.108 87.4204 237.056 86.4956 235.759 86.4956C234.462 86.4956 233.41 87.4204 233.41 88.5611C233.41 89.7018 234.462 90.6266 235.759 90.6266Z" fill="white"/>
<path d="M247.424 89.7057C247.146 90.0717 246.743 90.3501 246.272 90.5004C245.802 90.6507 245.289 90.665 244.809 90.5412C244.329 90.4174 243.906 90.162 243.603 89.8123C243.299 89.4625 243.131 89.0366 243.121 88.5967C243.112 88.1567 243.263 87.7257 243.552 87.3665C243.841 87.0072 244.253 86.7385 244.728 86.5995C245.203 86.4604 245.715 86.4584 246.192 86.5935C246.668 86.7287 247.082 86.994 247.375 87.3509C247.415 88.1342 247.431 88.9191 247.424 89.7057Z" fill="white"/>
<path d="M182.358 96.6879C183.655 96.6879 184.707 95.7631 184.707 94.6224C184.707 93.4816 183.655 92.5569 182.358 92.5569C181.06 92.5569 180.009 93.4816 180.009 94.6224C180.009 95.7631 181.06 96.6879 182.358 96.6879Z" fill="white"/>
<path d="M192.067 96.6879C193.364 96.6879 194.416 95.7631 194.416 94.6224C194.416 93.4816 193.364 92.5569 192.067 92.5569C190.77 92.5569 189.718 93.4816 189.718 94.6224C189.718 95.7631 190.77 96.6879 192.067 96.6879Z" fill="white"/>
<path d="M201.779 96.6879C203.076 96.6879 204.128 95.7631 204.128 94.6224C204.128 93.4816 203.076 92.5569 201.779 92.5569C200.481 92.5569 199.43 93.4816 199.43 94.6224C199.43 95.7631 200.481 96.6879 201.779 96.6879Z" fill="white"/>
<path d="M211.487 96.6879C212.784 96.6879 213.836 95.7631 213.836 94.6224C213.836 93.4816 212.784 92.5569 211.487 92.5569C210.189 92.5569 209.138 93.4816 209.138 94.6224C209.138 95.7631 210.189 96.6879 211.487 96.6879Z" fill="white"/>
<path d="M221.197 96.6879C222.494 96.6879 223.546 95.7631 223.546 94.6224C223.546 93.4816 222.494 92.5569 221.197 92.5569C219.899 92.5569 218.848 93.4816 218.848 94.6224C218.848 95.7631 219.899 96.6879 221.197 96.6879Z" fill="white"/>
<path d="M230.904 96.6879C232.201 96.6879 233.253 95.7631 233.253 94.6224C233.253 93.4816 232.201 92.5569 230.904 92.5569C229.607 92.5569 228.555 93.4816 228.555 94.6224C228.555 95.7631 229.607 96.6879 230.904 96.6879Z" fill="white"/>
<path d="M240.615 96.6879C241.912 96.6879 242.964 95.7631 242.964 94.6224C242.964 93.4816 241.912 92.5569 240.615 92.5569C239.317 92.5569 238.266 93.4816 238.266 94.6224C238.266 95.7631 239.317 96.6879 240.615 96.6879Z" fill="white"/>
<path d="M177.506 102.469C178.803 102.469 179.855 101.544 179.855 100.403C179.855 99.2624 178.803 98.3376 177.506 98.3376C176.209 98.3376 175.157 99.2624 175.157 100.403C175.157 101.544 176.209 102.469 177.506 102.469Z" fill="white"/>
<path d="M187.213 102.469C188.51 102.469 189.562 101.544 189.562 100.403C189.562 99.2624 188.51 98.3376 187.213 98.3376C185.916 98.3376 184.864 99.2624 184.864 100.403C184.864 101.544 185.916 102.469 187.213 102.469Z" fill="white"/>
<path d="M196.924 102.469C198.221 102.469 199.273 101.544 199.273 100.403C199.273 99.2624 198.221 98.3376 196.924 98.3376C195.627 98.3376 194.575 99.2624 194.575 100.403C194.575 101.544 195.627 102.469 196.924 102.469Z" fill="white"/>
<path d="M206.631 102.469C207.928 102.469 208.98 101.544 208.98 100.403C208.98 99.2624 207.928 98.3376 206.631 98.3376C205.334 98.3376 204.282 99.2624 204.282 100.403C204.282 101.544 205.334 102.469 206.631 102.469Z" fill="white"/>
<path d="M216.34 102.469C217.637 102.469 218.689 101.544 218.689 100.403C218.689 99.2624 217.637 98.3376 216.34 98.3376C215.043 98.3376 213.991 99.2624 213.991 100.403C213.991 101.544 215.043 102.469 216.34 102.469Z" fill="white"/>
<path d="M226.05 102.469C227.347 102.469 228.399 101.544 228.399 100.403C228.399 99.2624 227.347 98.3376 226.05 98.3376C224.752 98.3376 223.701 99.2624 223.701 100.403C223.701 101.544 224.752 102.469 226.05 102.469Z" fill="white"/>
<path d="M235.759 102.469C237.056 102.469 238.108 101.544 238.108 100.403C238.108 99.2624 237.056 98.3376 235.759 98.3376C234.462 98.3376 233.41 99.2624 233.41 100.403C233.41 101.544 234.462 102.469 235.759 102.469Z" fill="white"/>
<path d="M246.195 98.4358C245.84 99.7088 245.477 101.047 245.105 102.441C244.524 102.357 244.001 102.083 243.638 101.676C243.275 101.268 243.1 100.755 243.147 100.239C243.193 99.7229 243.459 99.2411 243.89 98.889C244.322 98.5369 244.888 98.3401 245.477 98.3376C245.721 98.3377 245.963 98.3708 246.195 98.4358Z" fill="white"/>
<path d="M182.358 108.803C183.655 108.803 184.707 107.879 184.707 106.738C184.707 105.597 183.655 104.672 182.358 104.672C181.06 104.672 180.009 105.597 180.009 106.738C180.009 107.879 181.06 108.803 182.358 108.803Z" fill="white"/>
<path d="M172.651 108.803C173.948 108.803 175 107.879 175 106.738C175 105.597 173.948 104.672 172.651 104.672C171.353 104.672 170.302 105.597 170.302 106.738C170.302 107.879 171.353 108.803 172.651 108.803Z" fill="white"/>
<path d="M192.067 108.803C193.364 108.803 194.416 107.879 194.416 106.738C194.416 105.597 193.364 104.672 192.067 104.672C190.77 104.672 189.718 105.597 189.718 106.738C189.718 107.879 190.77 108.803 192.067 108.803Z" fill="white"/>
<path d="M201.779 108.803C203.076 108.803 204.128 107.879 204.128 106.738C204.128 105.597 203.076 104.672 201.779 104.672C200.481 104.672 199.43 105.597 199.43 106.738C199.43 107.879 200.481 108.803 201.779 108.803Z" fill="white"/>
<path d="M211.487 108.803C212.784 108.803 213.836 107.879 213.836 106.738C213.836 105.597 212.784 104.672 211.487 104.672C210.189 104.672 209.138 105.597 209.138 106.738C209.138 107.879 210.189 108.803 211.487 108.803Z" fill="white"/>
<path d="M221.197 108.803C222.494 108.803 223.546 107.879 223.546 106.738C223.546 105.597 222.494 104.672 221.197 104.672C219.899 104.672 218.848 105.597 218.848 106.738C218.848 107.879 219.899 108.803 221.197 108.803Z" fill="white"/>
<path d="M230.904 108.803C232.201 108.803 233.253 107.879 233.253 106.738C233.253 105.597 232.201 104.672 230.904 104.672C229.607 104.672 228.555 105.597 228.555 106.738C228.555 107.879 229.607 108.803 230.904 108.803Z" fill="white"/>
<path d="M240.615 108.803C241.912 108.803 242.964 107.879 242.964 106.738C242.964 105.597 241.912 104.672 240.615 104.672C239.317 104.672 238.266 105.597 238.266 106.738C238.266 107.879 239.317 108.803 240.615 108.803Z" fill="white"/>
<path d="M177.506 114.587C178.803 114.587 179.855 113.662 179.855 112.521C179.855 111.381 178.803 110.456 177.506 110.456C176.209 110.456 175.157 111.381 175.157 112.521C175.157 113.662 176.209 114.587 177.506 114.587Z" fill="white"/>
<path d="M172.651 96.6879C173.948 96.6879 175 95.7631 175 94.6224C175 93.4816 173.948 92.5569 172.651 92.5569C171.353 92.5569 170.302 93.4816 170.302 94.6224C170.302 95.7631 171.353 96.6879 172.651 96.6879Z" fill="white"/>
<path d="M167.794 102.469C169.092 102.469 170.143 101.544 170.143 100.403C170.143 99.2624 169.092 98.3376 167.794 98.3376C166.497 98.3376 165.445 99.2624 165.445 100.403C165.445 101.544 166.497 102.469 167.794 102.469Z" fill="white"/>
<path d="M162.94 108.803C164.237 108.803 165.289 107.879 165.289 106.738C165.289 105.597 164.237 104.672 162.94 104.672C161.642 104.672 160.591 105.597 160.591 106.738C160.591 107.879 161.642 108.803 162.94 108.803Z" fill="white"/>
<path d="M167.794 114.587C169.092 114.587 170.143 113.662 170.143 112.521C170.143 111.381 169.092 110.456 167.794 110.456C166.497 110.456 165.445 111.381 165.445 112.521C165.445 113.662 166.497 114.587 167.794 114.587Z" fill="white"/>
<path d="M165.292 94.6194C165.292 95.1672 165.044 95.6925 164.604 96.0799C164.163 96.4672 163.566 96.6848 162.943 96.6848C162.82 96.686 162.697 96.6767 162.577 96.6572C163.215 95.4823 163.873 94.2948 164.539 93.1099C164.777 93.3018 164.967 93.5351 165.096 93.795C165.226 94.0549 165.292 94.3356 165.292 94.6194Z" fill="white"/>
<path d="M158.087 114.587C159.384 114.587 160.436 113.662 160.436 112.521C160.436 111.381 159.384 110.456 158.087 110.456C156.789 110.456 155.738 111.381 155.738 112.521C155.738 113.662 156.789 114.587 158.087 114.587Z" fill="white"/>
<path d="M187.213 114.587C188.51 114.587 189.562 113.662 189.562 112.521C189.562 111.381 188.51 110.456 187.213 110.456C185.916 110.456 184.864 111.381 184.864 112.521C184.864 113.662 185.916 114.587 187.213 114.587Z" fill="white"/>
<path d="M196.924 114.587C198.221 114.587 199.273 113.662 199.273 112.521C199.273 111.381 198.221 110.456 196.924 110.456C195.627 110.456 194.575 111.381 194.575 112.521C194.575 113.662 195.627 114.587 196.924 114.587Z" fill="white"/>
<path d="M206.631 114.587C207.928 114.587 208.98 113.662 208.98 112.521C208.98 111.381 207.928 110.456 206.631 110.456C205.334 110.456 204.282 111.381 204.282 112.521C204.282 113.662 205.334 114.587 206.631 114.587Z" fill="white"/>
<path d="M216.34 114.587C217.637 114.587 218.689 113.662 218.689 112.521C218.689 111.381 217.637 110.456 216.34 110.456C215.043 110.456 213.991 111.381 213.991 112.521C213.991 113.662 215.043 114.587 216.34 114.587Z" fill="white"/>
<path d="M226.05 114.587C227.347 114.587 228.399 113.662 228.399 112.521C228.399 111.381 227.347 110.456 226.05 110.456C224.752 110.456 223.701 111.381 223.701 112.521C223.701 113.662 224.752 114.587 226.05 114.587Z" fill="white"/>
<path d="M235.759 114.587C237.056 114.587 238.108 113.662 238.108 112.521C238.108 111.381 237.056 110.456 235.759 110.456C234.462 110.456 233.41 111.381 233.41 112.521C233.41 113.662 234.462 114.587 235.759 114.587Z" fill="white"/>
<path d="M182.358 120.645C183.655 120.645 184.707 119.721 184.707 118.58C184.707 117.439 183.655 116.514 182.358 116.514C181.06 116.514 180.009 117.439 180.009 118.58C180.009 119.721 181.06 120.645 182.358 120.645Z" fill="white"/>
<path d="M192.067 120.645C193.364 120.645 194.416 119.721 194.416 118.58C194.416 117.439 193.364 116.514 192.067 116.514C190.77 116.514 189.718 117.439 189.718 118.58C189.718 119.721 190.77 120.645 192.067 120.645Z" fill="white"/>
<path d="M201.779 120.645C203.076 120.645 204.128 119.721 204.128 118.58C204.128 117.439 203.076 116.514 201.779 116.514C200.481 116.514 199.43 117.439 199.43 118.58C199.43 119.721 200.481 120.645 201.779 120.645Z" fill="white"/>
<path d="M211.487 120.645C212.784 120.645 213.836 119.721 213.836 118.58C213.836 117.439 212.784 116.514 211.487 116.514C210.189 116.514 209.138 117.439 209.138 118.58C209.138 119.721 210.189 120.645 211.487 120.645Z" fill="white"/>
<path d="M221.197 120.645C222.494 120.645 223.546 119.721 223.546 118.58C223.546 117.439 222.494 116.514 221.197 116.514C219.899 116.514 218.848 117.439 218.848 118.58C218.848 119.721 219.899 120.645 221.197 120.645Z" fill="white"/>
<path d="M230.904 120.645C232.201 120.645 233.253 119.721 233.253 118.58C233.253 117.439 232.201 116.514 230.904 116.514C229.607 116.514 228.555 117.439 228.555 118.58C228.555 119.721 229.607 120.645 230.904 120.645Z" fill="white"/>
<path d="M241.505 116.667C241.186 117.991 240.87 119.316 240.555 120.642C240.21 120.635 239.872 120.561 239.563 120.426C239.255 120.291 238.984 120.098 238.77 119.86C238.556 119.622 238.404 119.346 238.325 119.051C238.246 118.756 238.242 118.449 238.312 118.153C238.383 117.856 238.528 117.577 238.735 117.335C238.942 117.093 239.208 116.894 239.513 116.752C239.817 116.61 240.154 116.529 240.498 116.514C240.842 116.5 241.186 116.552 241.505 116.667Z" fill="white"/>
<path d="M177.505 122.299C178.106 122.297 178.685 122.5 179.119 122.865C178.198 123.997 177.277 125.096 176.355 126.163C175.903 125.94 175.547 125.591 175.343 125.171C175.14 124.751 175.101 124.283 175.231 123.842C175.362 123.4 175.656 123.009 176.066 122.729C176.476 122.449 176.981 122.297 177.5 122.296L177.505 122.299Z" fill="white"/>
<path d="M187.213 126.429C188.51 126.429 189.562 125.504 189.562 124.363C189.562 123.223 188.51 122.298 187.213 122.298C185.916 122.298 184.864 123.223 184.864 124.363C184.864 125.504 185.916 126.429 187.213 126.429Z" fill="white"/>
<path d="M196.924 126.429C198.221 126.429 199.273 125.504 199.273 124.363C199.273 123.223 198.221 122.298 196.924 122.298C195.627 122.298 194.575 123.223 194.575 124.363C194.575 125.504 195.627 126.429 196.924 126.429Z" fill="white"/>
<path d="M206.631 126.429C207.928 126.429 208.98 125.504 208.98 124.363C208.98 123.223 207.928 122.298 206.631 122.298C205.334 122.298 204.282 123.223 204.282 124.363C204.282 125.504 205.334 126.429 206.631 126.429Z" fill="white"/>
<path d="M216.34 126.429C217.637 126.429 218.689 125.504 218.689 124.363C218.689 123.223 217.637 122.298 216.34 122.298C215.043 122.298 213.991 123.223 213.991 124.363C213.991 125.504 215.043 126.429 216.34 126.429Z" fill="white"/>
<path d="M226.05 126.429C227.347 126.429 228.399 125.504 228.399 124.363C228.399 123.223 227.347 122.298 226.05 122.298C224.752 122.298 223.701 123.223 223.701 124.363C223.701 125.504 224.752 126.429 226.05 126.429Z" fill="white"/>
<path d="M235.759 126.429C237.056 126.429 238.108 125.504 238.108 124.363C238.108 123.223 237.056 122.298 235.759 122.298C234.462 122.298 233.41 123.223 233.41 124.363C233.41 125.504 234.462 126.429 235.759 126.429Z" fill="white"/>
<path d="M182.985 132.765C184.282 132.765 185.334 131.84 185.334 130.699C185.334 129.558 184.282 128.634 182.985 128.634C181.687 128.634 180.636 129.558 180.636 130.699C180.636 131.84 181.687 132.765 182.985 132.765Z" fill="white"/>
<path d="M173.876 128.941C172.864 130.037 171.856 131.076 170.867 132.045C170.573 131.744 170.384 131.376 170.322 130.983C170.26 130.591 170.327 130.191 170.517 129.831C170.706 129.471 171.009 129.167 171.39 128.955C171.771 128.743 172.213 128.631 172.663 128.634C173.092 128.634 173.513 128.74 173.876 128.941Z" fill="white"/>
<path d="M192.067 132.765C193.364 132.765 194.416 131.84 194.416 130.699C194.416 129.558 193.364 128.634 192.067 128.634C190.77 128.634 189.718 129.558 189.718 130.699C189.718 131.84 190.77 132.765 192.067 132.765Z" fill="white"/>
<path d="M201.779 132.765C203.076 132.765 204.128 131.84 204.128 130.699C204.128 129.558 203.076 128.634 201.779 128.634C200.481 128.634 199.43 129.558 199.43 130.699C199.43 131.84 200.481 132.765 201.779 132.765Z" fill="white"/>
<path d="M211.487 132.765C212.784 132.765 213.836 131.84 213.836 130.699C213.836 129.558 212.784 128.634 211.487 128.634C210.189 128.634 209.138 129.558 209.138 130.699C209.138 131.84 210.189 132.765 211.487 132.765Z" fill="white"/>
<path d="M221.197 132.765C222.494 132.765 223.546 131.84 223.546 130.699C223.546 129.558 222.494 128.634 221.197 128.634C219.899 128.634 218.848 129.558 218.848 130.699C218.848 131.84 219.899 132.765 221.197 132.765Z" fill="white"/>
<path d="M230.904 132.765C232.201 132.765 233.253 131.84 233.253 130.699C233.253 129.558 232.201 128.634 230.904 128.634C229.607 128.634 228.555 129.558 228.555 130.699C228.555 131.84 229.607 132.765 230.904 132.765Z" fill="white"/>
<path d="M172.651 120.645C173.948 120.645 175 119.721 175 118.58C175 117.439 173.948 116.514 172.651 116.514C171.353 116.514 170.302 117.439 170.302 118.58C170.302 119.721 171.353 120.645 172.651 120.645Z" fill="white"/>
<path d="M167.794 126.429C169.092 126.429 170.143 125.504 170.143 124.363C170.143 123.223 169.092 122.298 167.794 122.298C166.497 122.298 165.445 123.223 165.445 124.363C165.445 125.504 166.497 126.429 167.794 126.429Z" fill="white"/>
<path d="M162.94 132.765C164.237 132.765 165.289 131.84 165.289 130.699C165.289 129.558 164.237 128.634 162.94 128.634C161.642 128.634 160.591 129.558 160.591 130.699C160.591 131.84 161.642 132.765 162.94 132.765Z" fill="white"/>
<path d="M158.087 138.548C159.384 138.548 160.436 137.623 160.436 136.482C160.436 135.342 159.384 134.417 158.087 134.417C156.789 134.417 155.738 135.342 155.738 136.482C155.738 137.623 156.789 138.548 158.087 138.548Z" fill="white"/>
<path d="M162.94 120.645C164.237 120.645 165.289 119.721 165.289 118.58C165.289 117.439 164.237 116.514 162.94 116.514C161.642 116.514 160.591 117.439 160.591 118.58C160.591 119.721 161.642 120.645 162.94 120.645Z" fill="white"/>
<path d="M158.087 126.429C159.384 126.429 160.436 125.504 160.436 124.363C160.436 123.223 159.384 122.298 158.087 122.298C156.789 122.298 155.738 123.223 155.738 124.363C155.738 125.504 156.789 126.429 158.087 126.429Z" fill="white"/>
<path d="M153.233 132.765C154.53 132.765 155.582 131.84 155.582 130.699C155.582 129.558 154.53 128.634 153.233 128.634C151.935 128.634 150.884 129.558 150.884 130.699C150.884 131.84 151.935 132.765 153.233 132.765Z" fill="white"/>
<path d="M148.377 138.548C149.675 138.548 150.726 137.623 150.726 136.482C150.726 135.342 149.675 134.417 148.377 134.417C147.08 134.417 146.028 135.342 146.028 136.482C146.028 137.623 147.08 138.548 148.377 138.548Z" fill="white"/>
<path d="M153.233 120.645C154.53 120.645 155.582 119.721 155.582 118.58C155.582 117.439 154.53 116.514 153.233 116.514C151.935 116.514 150.884 117.439 150.884 118.58C150.884 119.721 151.935 120.645 153.233 120.645Z" fill="white"/>
<path d="M148.377 126.429C149.675 126.429 150.726 125.504 150.726 124.363C150.726 123.223 149.675 122.298 148.377 122.298C147.08 122.298 146.028 123.223 146.028 124.363C146.028 125.504 147.08 126.429 148.377 126.429Z" fill="white"/>
<path d="M143.521 132.765C144.819 132.765 145.87 131.84 145.87 130.699C145.87 129.558 144.819 128.634 143.521 128.634C142.224 128.634 141.172 129.558 141.172 130.699C141.172 131.84 142.224 132.765 143.521 132.765Z" fill="white"/>
<path d="M141.017 136.47C141.018 136.812 140.922 137.149 140.737 137.451C140.552 137.752 140.285 138.008 139.959 138.196C138.88 138.017 137.796 137.823 136.717 137.622C136.51 137.354 136.378 137.048 136.331 136.727C136.283 136.406 136.322 136.08 136.445 135.775C136.567 135.469 136.769 135.194 137.035 134.97C137.3 134.746 137.622 134.58 137.974 134.486C138.326 134.391 138.698 134.371 139.061 134.426C139.423 134.481 139.766 134.61 140.062 134.803C140.357 134.997 140.596 135.248 140.761 135.537C140.926 135.827 141.01 136.146 141.009 136.47H141.017Z" fill="white"/>
<path d="M145.873 118.58C145.873 119.128 145.626 119.654 145.185 120.041C144.745 120.428 144.147 120.646 143.524 120.646C142.901 120.646 142.304 120.428 141.863 120.041C141.423 119.654 141.175 119.128 141.175 118.58C141.175 118.342 141.222 118.105 141.315 117.881L145.484 117.463C145.735 117.795 145.87 118.183 145.873 118.58Z" fill="white"/>
<path d="M138.667 126.429C139.965 126.429 141.016 125.504 141.016 124.363C141.016 123.223 139.965 122.298 138.667 122.298C137.37 122.298 136.318 123.223 136.318 124.363C136.318 125.504 137.37 126.429 138.667 126.429Z" fill="white"/>
<path d="M133.814 132.765C135.112 132.765 136.163 131.84 136.163 130.699C136.163 129.558 135.112 128.634 133.814 128.634C132.517 128.634 131.465 129.558 131.465 130.699C131.465 131.84 132.517 132.765 133.814 132.765Z" fill="white"/>
<path d="M131.309 136.469C131.311 136.494 131.311 136.518 131.309 136.542C129.81 136.225 128.322 135.893 126.863 135.551C127.099 135.135 127.488 134.801 127.966 134.604C128.445 134.406 128.985 134.356 129.5 134.463C130.014 134.569 130.473 134.825 130.802 135.189C131.13 135.553 131.309 136.005 131.309 136.469Z" fill="white"/>
<path d="M136.164 118.579C136.159 119.102 135.928 119.604 135.519 119.984C135.11 120.363 134.552 120.592 133.958 120.624C133.365 120.656 132.779 120.489 132.32 120.156C131.861 119.823 131.563 119.349 131.486 118.831L136.152 118.383C136.16 118.448 136.164 118.514 136.164 118.579Z" fill="white"/>
<path d="M128.959 126.429C130.256 126.429 131.308 125.504 131.308 124.363C131.308 123.223 130.256 122.298 128.959 122.298C127.662 122.298 126.61 123.223 126.61 124.363C126.61 125.504 127.662 126.429 128.959 126.429Z" fill="white"/>
<path d="M124.103 132.765C125.401 132.765 126.452 131.84 126.452 130.699C126.452 129.558 125.401 128.634 124.103 128.634C122.806 128.634 121.754 129.558 121.754 130.699C121.754 131.84 122.806 132.765 124.103 132.765Z" fill="white"/>
<path d="M126.298 119.317C126.143 119.674 125.878 119.986 125.533 120.219C125.188 120.452 124.776 120.595 124.343 120.634C123.911 120.673 123.474 120.605 123.083 120.438C122.691 120.271 122.36 120.012 122.127 119.689C123.5 119.568 124.885 119.445 126.298 119.317Z" fill="white"/>
<path d="M119.248 126.429C120.545 126.429 121.597 125.504 121.597 124.363C121.597 123.223 120.545 122.298 119.248 122.298C117.951 122.298 116.899 123.223 116.899 124.363C116.899 125.504 117.951 126.429 119.248 126.429Z" fill="white"/>
<path d="M116.746 130.698C116.746 131.095 116.616 131.484 116.371 131.817C116.126 132.151 115.776 132.415 115.364 132.578C114.306 132.273 113.29 131.971 112.326 131.677C112.158 131.4 112.063 131.094 112.05 130.78C112.037 130.466 112.105 130.154 112.249 129.867C112.394 129.58 112.61 129.326 112.883 129.124C113.156 128.922 113.478 128.777 113.824 128.7C114.17 128.624 114.531 128.617 114.88 128.682C115.23 128.746 115.557 128.88 115.839 129.073C116.121 129.265 116.349 129.512 116.506 129.793C116.663 130.075 116.745 130.385 116.746 130.698Z" fill="white"/>
<path d="M109.541 126.429C110.838 126.429 111.89 125.504 111.89 124.363C111.89 123.223 110.838 122.298 109.541 122.298C108.244 122.298 107.192 123.223 107.192 124.363C107.192 125.504 108.244 126.429 109.541 126.429Z" fill="white"/>
<path d="M187.213 138.548C188.51 138.548 189.562 137.623 189.562 136.482C189.562 135.342 188.51 134.417 187.213 134.417C185.916 134.417 184.864 135.342 184.864 136.482C184.864 137.623 185.916 138.548 187.213 138.548Z" fill="white"/>
<path d="M196.924 138.548C198.221 138.548 199.273 137.623 199.273 136.482C199.273 135.342 198.221 134.417 196.924 134.417C195.627 134.417 194.575 135.342 194.575 136.482C194.575 137.623 195.627 138.548 196.924 138.548Z" fill="white"/>
<path d="M206.631 138.548C207.928 138.548 208.98 137.623 208.98 136.482C208.98 135.342 207.928 134.417 206.631 134.417C205.334 134.417 204.282 135.342 204.282 136.482C204.282 137.623 205.334 138.548 206.631 138.548Z" fill="white"/>
<path d="M216.34 138.548C217.637 138.548 218.689 137.623 218.689 136.482C218.689 135.342 217.637 134.417 216.34 134.417C215.043 134.417 213.991 135.342 213.991 136.482C213.991 137.623 215.043 138.548 216.34 138.548Z" fill="white"/>
<path d="M226.05 138.548C227.347 138.548 228.399 137.623 228.399 136.482C228.399 135.342 227.347 134.417 226.05 134.417C224.752 134.417 223.701 135.342 223.701 136.482C223.701 137.623 224.752 138.548 226.05 138.548Z" fill="white"/>
<path d="M237.295 134.92C237.032 136.128 236.777 137.3 236.537 138.427C236.287 138.507 236.024 138.548 235.758 138.548C235.378 138.549 235.003 138.469 234.666 138.315C234.329 138.161 234.039 137.937 233.821 137.663C233.604 137.388 233.465 137.072 233.418 136.74C233.37 136.408 233.414 136.071 233.547 135.758C233.679 135.445 233.897 135.165 234.179 134.941C234.462 134.718 234.803 134.558 235.171 134.476C235.54 134.393 235.925 134.391 236.295 134.468C236.665 134.545 237.008 134.701 237.295 134.92Z" fill="white"/>
<path d="M184.71 142.54C184.71 143.042 184.503 143.526 184.126 143.902C183.75 144.279 183.23 144.522 182.664 144.585C182.432 143.282 182.195 141.914 181.958 140.507C182.09 140.485 182.226 140.474 182.361 140.475C182.984 140.475 183.581 140.693 184.021 141.08C184.461 141.468 184.709 141.993 184.71 142.54Z" fill="white"/>
<path d="M192.067 144.606C193.364 144.606 194.416 143.681 194.416 142.54C194.416 141.399 193.364 140.475 192.067 140.475C190.77 140.475 189.718 141.399 189.718 142.54C189.718 143.681 190.77 144.606 192.067 144.606Z" fill="white"/>
<path d="M201.779 144.606C203.076 144.606 204.128 143.681 204.128 142.54C204.128 141.399 203.076 140.475 201.779 140.475C200.481 140.475 199.43 141.399 199.43 142.54C199.43 143.681 200.481 144.606 201.779 144.606Z" fill="white"/>
<path d="M211.487 144.606C212.784 144.606 213.836 143.681 213.836 142.54C213.836 141.399 212.784 140.475 211.487 140.475C210.189 140.475 209.138 141.399 209.138 142.54C209.138 143.681 210.189 144.606 211.487 144.606Z" fill="white"/>
<path d="M221.197 144.606C222.494 144.606 223.546 143.681 223.546 142.54C223.546 141.399 222.494 140.475 221.197 140.475C219.899 140.475 218.848 141.399 218.848 142.54C218.848 143.681 219.899 144.606 221.197 144.606Z" fill="white"/>
<path d="M230.904 144.606C232.201 144.606 233.253 143.681 233.253 142.54C233.253 141.399 232.201 140.475 230.904 140.475C229.607 140.475 228.555 141.399 228.555 142.54C228.555 143.681 229.607 144.606 230.904 144.606Z" fill="white"/>
<path d="M187.213 150.39C188.51 150.39 189.562 149.465 189.562 148.325C189.562 147.184 188.51 146.259 187.213 146.259C185.916 146.259 184.864 147.184 184.864 148.325C184.864 149.465 185.916 150.39 187.213 150.39Z" fill="white"/>
<path d="M196.924 150.39C198.221 150.39 199.273 149.465 199.273 148.325C199.273 147.184 198.221 146.259 196.924 146.259C195.627 146.259 194.575 147.184 194.575 148.325C194.575 149.465 195.627 150.39 196.924 150.39Z" fill="white"/>
<path d="M206.631 150.39C207.928 150.39 208.98 149.465 208.98 148.325C208.98 147.184 207.928 146.259 206.631 146.259C205.334 146.259 204.282 147.184 204.282 148.325C204.282 149.465 205.334 150.39 206.631 150.39Z" fill="white"/>
<path d="M216.34 150.39C217.637 150.39 218.689 149.465 218.689 148.325C218.689 147.184 217.637 146.259 216.34 146.259C215.043 146.259 213.991 147.184 213.991 148.325C213.991 149.465 215.043 150.39 216.34 150.39Z" fill="white"/>
<path d="M226.05 150.39C227.347 150.39 228.399 149.465 228.399 148.325C228.399 147.184 227.347 146.259 226.05 146.259C224.752 146.259 223.701 147.184 223.701 148.325C223.701 149.465 224.752 150.39 226.05 150.39Z" fill="white"/>
<path d="M234.913 146.397C234.65 147.784 234.435 148.976 234.287 149.92C233.969 149.692 233.725 149.395 233.578 149.058C233.432 148.721 233.388 148.357 233.452 148.001C233.515 147.644 233.683 147.309 233.94 147.028C234.196 146.747 234.532 146.529 234.913 146.397Z" fill="white"/>
<path d="M194.409 154.656C194.41 155.055 194.279 155.445 194.033 155.779C193.786 156.114 193.435 156.378 193.022 156.541C192.189 156.463 191.38 156.367 190.59 156.267C190.281 156.048 190.04 155.763 189.889 155.441C189.739 155.118 189.684 154.766 189.73 154.42C189.776 154.073 189.921 153.742 190.151 153.458C190.382 153.174 190.691 152.946 191.048 152.795C191.406 152.644 191.802 152.576 192.198 152.596C192.594 152.616 192.978 152.724 193.314 152.91C193.65 153.096 193.927 153.353 194.119 153.659C194.311 153.964 194.412 154.307 194.412 154.656H194.409Z" fill="white"/>
<path d="M201.779 156.725C203.076 156.725 204.128 155.8 204.128 154.66C204.128 153.519 203.076 152.594 201.779 152.594C200.481 152.594 199.43 153.519 199.43 154.66C199.43 155.8 200.481 156.725 201.779 156.725Z" fill="white"/>
<path d="M211.487 156.725C212.784 156.725 213.836 155.8 213.836 154.66C213.836 153.519 212.784 152.594 211.487 152.594C210.189 152.594 209.138 153.519 209.138 154.66C209.138 155.8 210.189 156.725 211.487 156.725Z" fill="white"/>
<path d="M223.547 154.657C223.547 155.088 223.394 155.508 223.109 155.859C222.033 156.01 220.906 156.151 219.736 156.275C219.425 156.057 219.182 155.773 219.03 155.45C218.878 155.128 218.822 154.776 218.866 154.429C218.911 154.082 219.054 153.75 219.284 153.465C219.514 153.18 219.822 152.951 220.18 152.8C220.538 152.648 220.934 152.578 221.33 152.598C221.727 152.617 222.111 152.724 222.448 152.91C222.785 153.095 223.062 153.353 223.255 153.659C223.448 153.964 223.549 154.308 223.549 154.657H223.547Z" fill="white"/>
<path d="M232.793 153.429C231.848 153.95 230.398 154.436 228.57 154.868C228.565 154.798 228.565 154.727 228.57 154.657C228.569 154.222 228.724 153.798 229.014 153.446C229.303 153.094 229.712 152.83 230.181 152.694C230.651 152.558 231.157 152.556 231.628 152.688C232.099 152.82 232.511 153.079 232.804 153.429H232.793Z" fill="white"/>
<path d="M85.8741 120.161C88.6551 119.635 98.4371 119.681 103.444 120.876L102.497 128.172C102.497 128.172 97.7876 130.199 94.6776 129.075C91.5677 127.95 89.2216 125.736 87.0071 126.343C84.7927 126.949 82.0689 128.483 80.7385 128.204C79.1531 127.893 77.6411 127.342 76.2695 126.577C76.7988 125.721 82.4466 121.095 85.8741 120.161Z" fill="#DC9996"/>
<path d="M204.925 47.962C205.701 50.6941 208.808 62.5361 208.808 64.3576C208.808 66.179 230.183 64.0708 234.326 60.8832C234.326 60.8832 225.9 52.6263 223.828 40.2183L204.925 47.962Z" fill="#DC9996"/>
<path d="M221.207 41.4885C221.207 41.4885 214.687 53.4488 201.139 52.4953C200.687 52.4641 200.25 52.3348 199.868 52.1188C199.486 51.9028 199.171 51.6068 198.951 51.2575C197.091 48.2888 192.159 39.9363 192.339 34.9776C192.562 28.8868 195.509 17.5933 195.509 17.5933C195.509 17.5933 212.006 14.5894 221.164 28.039C226.294 35.5864 221.207 41.4885 221.207 41.4885Z" fill="#DC9996"/>
<path d="M209.298 30.6855H185.337" stroke="#E6CB9B" stroke-width="4" stroke-miterlimit="10"/>
<path d="M187.876 38.6429C189.173 38.6429 190.225 36.0793 190.225 32.9169C190.225 29.7545 189.173 27.1909 187.876 27.1909C186.579 27.1909 185.527 29.7545 185.527 32.9169C185.527 36.0793 186.579 38.6429 187.876 38.6429Z" stroke="#E6CB9B" stroke-width="4" stroke-miterlimit="10"/>
<path d="M252.472 53.0687C252.472 53.0687 233.461 57.9016 207.86 59.3733C207.86 59.3733 198.947 51.2573 209.216 41.2418C215.087 35.5158 207.891 28.2576 207.891 28.2576C199.666 25.9934 189.892 25.7418 189.892 25.7418C186.628 21.5228 186.539 15.5326 195.614 9.61792C205.016 3.49944 223.438 -2.6115 234.31 7.07694C240.539 12.6117 236.313 23.7065 244.284 27.0727C269.373 37.6417 252.472 53.0687 252.472 53.0687Z" fill="#141E32"/>
<path d="M198.449 9.60815C207.859 3.48967 226.273 -2.62126 237.145 7.06717C243.373 12.602 239.771 25.6239 247.731 28.99" stroke="#141E32" stroke-width="3" stroke-miterlimit="10"/>
<path d="M187.703 25.7322C184.438 21.5132 185.806 14.2827 195.945 9.88257" stroke="#141E32" stroke-width="3" stroke-miterlimit="10"/>
<path d="M203.568 59.3381C203.568 59.3381 195.906 50.7239 206.904 41.3248C213.198 35.951 207.805 27.1909 207.805 27.1909" stroke="#141E32" stroke-width="3" stroke-miterlimit="10"/>
<path d="M285.718 113.109C284.198 118.141 263.859 150.595 261.842 196.42C261.566 202.79 258.495 208.818 253.274 213.24C248.053 217.662 241.087 220.134 233.838 220.137H142.075C138.953 220.137 136.83 221.239 135.494 223.028C135.377 223.177 135.209 223.289 135.015 223.348C134.82 223.407 134.609 223.41 134.413 223.356C134.216 223.303 134.044 223.195 133.922 223.05C133.799 222.904 133.733 222.728 133.732 222.547V218.373C133.732 212.839 138.85 207.334 145.156 207.349L173.172 207.369C185.715 207.402 193.139 199.686 193.614 188.664C195.365 147.958 210.254 122.194 217 113.851C218.199 112.372 219.783 111.166 221.619 110.335C223.456 109.503 225.492 109.07 227.558 109.071H283.392C285.749 109.074 286.324 111.099 285.718 113.109Z" fill="white" stroke="#E5BE77" stroke-width="6" stroke-miterlimit="10" stroke-linecap="round"/>
<path d="M284.932 112.807H230.349C228.388 112.804 226.454 113.214 224.71 114.001C222.966 114.789 221.461 115.932 220.321 117.335C213.889 125.29 200.176 157.656 198.496 194.294C198.288 198.744 196.131 202.95 192.476 206.033C188.821 209.116 183.951 210.836 178.887 210.833H144.176C141.405 210.833 138.747 211.801 136.788 213.524C134.828 215.247 133.728 217.584 133.728 220.021" stroke="#E5BE77" stroke-width="6" stroke-miterlimit="10" stroke-linecap="round"/>
<path d="M200.948 236.643H190.935V317.683H200.948V236.643Z" fill="#E6CB9B" stroke="#E5BE77" stroke-width="6" stroke-miterlimit="10" stroke-linecap="round"/>
<path d="M174.507 326.38C174.507 321.632 178.541 317.783 183.517 317.783H208.408C213.384 317.783 217.42 321.632 217.42 326.38" stroke="#D8BAA3" stroke-width="6" stroke-miterlimit="10" stroke-linecap="round"/>
<path d="M216.85 336.453C220.728 336.453 223.871 333.689 223.871 330.28C223.871 326.87 220.728 324.106 216.85 324.106C212.973 324.106 209.829 326.87 209.829 330.28C209.829 333.689 212.973 336.453 216.85 336.453Z" fill="white" stroke="#E5BE77" stroke-width="6" stroke-miterlimit="10" stroke-linecap="round"/>
<path d="M175.365 336.453C179.243 336.453 182.386 333.689 182.386 330.28C182.386 326.87 179.243 324.106 175.365 324.106C171.488 324.106 168.344 326.87 168.344 330.28C168.344 333.689 171.488 336.453 175.365 336.453Z" fill="white" stroke="#E5BE77" stroke-width="6" stroke-miterlimit="10" stroke-linecap="round"/>
<path d="M184.969 220.283H206.905V232.379C206.905 233.291 206.701 234.193 206.304 235.036C205.907 235.878 205.326 236.643 204.593 237.287C203.86 237.932 202.99 238.443 202.032 238.792C201.074 239.141 200.048 239.32 199.011 239.32H192.869C191.831 239.321 190.804 239.142 189.845 238.793C188.887 238.445 188.016 237.933 187.282 237.288C186.549 236.643 185.967 235.878 185.57 235.035C185.173 234.192 184.969 233.289 184.969 232.377V220.283Z" fill="white" stroke="#E5BE77" stroke-width="6" stroke-miterlimit="10" stroke-linecap="round"/>
<path d="M155.317 326.335C155.317 324.066 156.342 321.891 158.166 320.287C159.99 318.682 162.465 317.781 165.045 317.781H229.991C232.571 317.781 235.045 318.682 236.869 320.287C238.694 321.891 239.718 324.066 239.718 326.335" stroke="#E5BE77" stroke-width="6" stroke-miterlimit="10" stroke-linecap="round"/>
<path d="M153.335 336.453C157.213 336.453 160.356 333.689 160.356 330.28C160.356 326.87 157.213 324.106 153.335 324.106C149.457 324.106 146.314 326.87 146.314 330.28C146.314 333.689 149.457 336.453 153.335 336.453Z" fill="white" stroke="#E5BE77" stroke-width="6" stroke-miterlimit="10" stroke-linecap="round"/>
<path d="M240.883 336.453C244.76 336.453 247.904 333.689 247.904 330.28C247.904 326.87 244.76 324.106 240.883 324.106C237.005 324.106 233.862 326.87 233.862 330.28C233.862 333.689 237.005 336.453 240.883 336.453Z" fill="white" stroke="#E5BE77" stroke-width="6" stroke-miterlimit="10" stroke-linecap="round"/>
</svg>
