<svg width="32" height="28" viewBox="0 0 32 28" fill="none" xmlns="http://www.w3.org/2000/svg">
<path d="M31.2656 0.296875V9.34375C31.2656 11.4062 30.8906 13.5625 30.1406 15.8125C29.3906 18.0938 28.375 20.2656 27.0938 22.3281C25.7812 24.3906 24.3125 26.1563 22.6875 27.625L15.9375 23.9688C17.1875 21.7812 18.1406 19.5156 18.7969 17.1719C19.4219 14.8594 19.7344 12.25 19.7344 9.34375V0.296875H31.2656ZM15.4688 0.296875V9.34375C15.4688 11.4062 15.0938 13.5625 14.3438 15.8125C13.5938 18.0938 12.5781 20.2656 11.2969 22.3281C9.98438 24.3906 8.51562 26.1563 6.89062 27.625L0.140625 23.9688C1.39062 21.7812 2.34375 19.5156 3 17.1719C3.625 14.8594 3.9375 12.25 3.9375 9.34375V0.296875H15.4688Z" fill="#61A88E"/>
</svg>
