<svg width="32" height="28" viewBox="0 0 32 28" fill="none" xmlns="http://www.w3.org/2000/svg">
<path d="M0.734375 27.7031V18.6562C0.734375 16.5938 1.10938 14.4375 1.85938 12.1875C2.60938 9.90625 3.625 7.73438 4.90625 5.67188C6.21875 3.60938 7.6875 1.84375 9.3125 0.375L16.0625 4.03125C14.8125 6.21875 13.8594 8.48438 13.2031 10.8281C12.5781 13.1406 12.2656 15.75 12.2656 18.6562V27.7031H0.734375ZM16.5312 27.7031V18.6562C16.5312 16.5938 16.9062 14.4375 17.6562 12.1875C18.4062 9.90625 19.4219 7.73438 20.7031 5.67188C22.0156 3.60938 23.4844 1.84375 25.1094 0.375L31.8594 4.03125C30.6094 6.21875 29.6562 8.48438 29 10.8281C28.375 13.1406 28.0625 15.75 28.0625 18.6562V27.7031H16.5312Z" fill="#61A88E"/>
</svg>
