<svg width="429" height="112" viewBox="0 0 429 112" fill="none" xmlns="http://www.w3.org/2000/svg">
<mask id="mask0" mask-type="alpha" maskUnits="userSpaceOnUse" x="0" y="0" width="429" height="112">
<rect y="0.787598" width="429" height="111.212" rx="20" fill="#C4C4C4"/>
</mask>
<g mask="url(#mask0)">
<path opacity="0.4" d="M-24.3483 96.1366C-24.3483 147.598 341.477 140.863 463.784 140.863C417.986 -24.0652 404.072 47.4527 368.709 35.339C290.445 0.862534 291.604 29.9787 238.269 12.2747C118.489 -27.4847 -24.3483 44.6747 -24.3483 96.1366Z" fill="#E6CB9B"/>
<ellipse opacity="0.6" cx="118.844" cy="75.2891" rx="150.15" ry="63.7042" fill="#E6CB9B"/>
<ellipse cx="315.952" cy="95.8039" rx="123.482" ry="63.7042" fill="#E6CB9B"/>
<ellipse cx="116.524" cy="105.521" rx="123.482" ry="63.7042" fill="#E6CB9B"/>
<path d="M435.956 115.239C435.956 145.055 70.1304 141.152 -52.1768 141.152C-6.37811 45.5963 28.9854 99.043 64.3489 92.0246C142.612 72.0496 120.003 76.9083 173.338 66.6509C293.118 43.6151 435.956 85.4229 435.956 115.239Z" fill="#E5BE77"/>
</g>
</svg>
