<svg width="574" height="346" viewBox="0 0 574 346" fill="none" xmlns="http://www.w3.org/2000/svg">
<g filter="url(#filter0_f)">
<path d="M61.0423 325.161H513.243C518.122 325.161 529.931 326.437 539.619 328.01C549.308 329.584 552.616 330.86 547.008 330.86H27.2768C21.6691 330.86 24.9773 329.584 34.6657 328.01C44.3541 326.437 56.1634 325.161 61.0423 325.161Z" fill="black" fill-opacity="0.4"/>
</g>
<g filter="url(#filter1_dd)">
<path d="M54.5176 23.886C54.5176 16.2252 54.5176 12.3948 56.0109 9.46873C57.3244 6.89491 59.4203 4.80232 61.9983 3.4909C64.929 2 68.7655 2 76.4386 2H497.562C505.235 2 509.072 2 512.002 3.4909C514.58 4.80232 516.676 6.89491 517.99 9.46873C519.483 12.3948 519.483 16.2252 519.483 23.886V298.715C519.483 306.376 519.483 310.206 517.99 313.132C516.676 315.706 514.58 317.799 512.002 319.11C509.072 320.601 505.235 320.601 497.562 320.601H76.4386C68.7655 320.601 64.929 320.601 61.9983 319.11C59.4203 317.799 57.3244 315.706 56.0109 313.132C54.5176 310.206 54.5176 306.376 54.5176 298.715V23.886Z" fill="#3A4245"/>
</g>
<path d="M55.6592 23.2021C55.6592 16.1796 55.6592 12.6684 57.028 9.98623C58.2321 7.62689 60.1534 5.70869 62.5165 4.50655C65.203 3.13989 68.7198 3.13989 75.7535 3.13989H498.247C505.281 3.13989 508.798 3.13989 511.484 4.50655C513.847 5.70869 515.768 7.62689 516.973 9.98623C518.341 12.6684 518.341 16.1796 518.341 23.2021V299.399C518.341 306.421 518.341 309.933 516.973 312.615C515.768 314.974 513.847 316.892 511.484 318.094C508.798 319.461 505.281 319.461 498.247 319.461H75.7535C68.7198 319.461 65.203 319.461 62.5165 318.094C60.1534 316.892 58.2321 314.974 57.028 312.615C55.6592 309.933 55.6592 306.421 55.6592 299.399V23.2021Z" fill="#262C2D"/>
<path d="M56.8008 22.5181C56.8008 16.1341 56.8008 12.9421 58.0452 10.5037C59.1398 8.35887 60.8864 6.61506 63.0347 5.5222C65.477 4.27979 68.6741 4.27979 75.0683 4.27979H498.932C505.326 4.27979 508.523 4.27979 510.966 5.5222C513.114 6.61506 514.861 8.35887 515.955 10.5037C517.2 12.9421 517.2 16.1341 517.2 22.5181V300.083C517.2 306.467 517.2 309.659 515.955 312.097C514.861 314.242 513.114 315.986 510.966 317.079C508.523 318.321 505.326 318.321 498.932 318.321H75.0683C68.6741 318.321 65.477 318.321 63.0347 317.079C60.8864 315.986 59.1398 314.242 58.0452 312.097C56.8008 309.659 56.8008 306.467 56.8008 300.083V22.5181Z" fill="#121515"/>
<rect x="56.8008" y="303.218" width="460.399" height="8.54922" fill="#262C2D"/>
<path fill-rule="evenodd" clip-rule="evenodd" d="M287.001 14.8238C287.868 14.8238 288.57 14.1221 288.57 13.2564C288.57 12.3908 287.868 11.6891 287.001 11.6891C286.134 11.6891 285.431 12.3908 285.431 13.2564C285.431 14.1221 286.134 14.8238 287.001 14.8238Z" fill="#262C2D"/>
<path fill-rule="evenodd" clip-rule="evenodd" d="M287.001 14.2361C287.543 14.2361 287.982 13.7975 287.982 13.2565C287.982 12.7154 287.543 12.2769 287.001 12.2769C286.459 12.2769 286.02 12.7154 286.02 13.2565C286.02 13.7975 286.459 14.2361 287.001 14.2361Z" fill="#121515"/>
<path opacity="0.4" fill-rule="evenodd" clip-rule="evenodd" d="M287.001 13.0605C287.109 13.0605 287.197 12.9728 287.197 12.8646C287.197 12.7564 287.109 12.6687 287.001 12.6687C286.893 12.6687 286.805 12.7564 286.805 12.8646C286.805 12.9728 286.893 13.0605 287.001 13.0605Z" fill="#636F73"/>
<path d="M0 312.337C0 312.022 0.255583 311.767 0.57086 311.767H286.429C286.744 311.767 287 312.022 287 312.337V320.601H0V312.337Z" fill="url(#paint0_linear)"/>
<path d="M573.857 312.337C573.857 312.022 573.602 311.767 573.287 311.767H287.428C287.113 311.767 286.857 312.022 286.857 312.337V320.601H573.857V312.337Z" fill="url(#paint1_linear)"/>
<path d="M252.606 318.036H321.395C325.02 318.036 327.959 315.229 327.959 311.767H246.041C246.041 315.229 248.98 318.036 252.606 318.036Z" fill="#ABAEB0"/>
<path d="M252.321 318.036H321.109C324.735 318.036 327.674 315.229 327.674 311.767H245.756C245.756 315.229 248.695 318.036 252.321 318.036Z" fill="url(#paint2_linear)"/>
<path fill-rule="evenodd" clip-rule="evenodd" d="M286.572 320.601H0C0 320.601 12.5589 328.58 53.8036 328.58H286.572H287.143H520.196C561.441 328.58 574 320.601 574 320.601H287.143H286.572Z" fill="url(#paint3_linear)"/>
<defs>
<filter id="filter0_f" x="9.54688" y="310.161" width="555.191" height="35.6995" filterUnits="userSpaceOnUse" color-interpolation-filters="sRGB">
<feFlood flood-opacity="0" result="BackgroundImageFix"/>
<feBlend mode="normal" in="SourceGraphic" in2="BackgroundImageFix" result="shape"/>
<feGaussianBlur stdDeviation="7.5" result="effect1_foregroundBlur"/>
</filter>
<filter id="filter1_dd" x="50.5176" y="0" width="472.966" height="326.601" filterUnits="userSpaceOnUse" color-interpolation-filters="sRGB">
<feFlood flood-opacity="0" result="BackgroundImageFix"/>
<feColorMatrix in="SourceAlpha" type="matrix" values="0 0 0 0 0 0 0 0 0 0 0 0 0 0 0 0 0 0 127 0"/>
<feOffset/>
<feGaussianBlur stdDeviation="1"/>
<feColorMatrix type="matrix" values="0 0 0 0 0 0 0 0 0 0.0823529 0 0 0 0 0.25098 0 0 0 0.14 0"/>
<feBlend mode="normal" in2="BackgroundImageFix" result="effect1_dropShadow"/>
<feColorMatrix in="SourceAlpha" type="matrix" values="0 0 0 0 0 0 0 0 0 0 0 0 0 0 0 0 0 0 127 0"/>
<feOffset dy="2"/>
<feGaussianBlur stdDeviation="2"/>
<feColorMatrix type="matrix" values="0 0 0 0 0 0 0 0 0 0.0823529 0 0 0 0 0.25098 0 0 0 0.05 0"/>
<feBlend mode="normal" in2="effect1_dropShadow" result="effect2_dropShadow"/>
<feBlend mode="normal" in="SourceGraphic" in2="effect2_dropShadow" result="shape"/>
</filter>
<linearGradient id="paint0_linear" x1="-4.93878e-07" y1="316.326" x2="287" y2="316.326" gradientUnits="userSpaceOnUse">
<stop stop-color="#717576"/>
<stop offset="0.016907" stop-color="#9C9FA1"/>
<stop offset="0.0353058" stop-color="#9C9FA1"/>
<stop offset="0.0571855" stop-color="#797E82"/>
<stop offset="0.0979612" stop-color="#797E82"/>
<stop offset="0.151169" stop-color="#B2B5B7"/>
<stop offset="0.756906" stop-color="#CACDCF"/>
<stop offset="1" stop-color="#CACDCF"/>
</linearGradient>
<linearGradient id="paint1_linear" x1="573.857" y1="316.326" x2="286.857" y2="316.326" gradientUnits="userSpaceOnUse">
<stop stop-color="#717576"/>
<stop offset="0.016907" stop-color="#9C9FA1"/>
<stop offset="0.0353058" stop-color="#9C9FA1"/>
<stop offset="0.0571855" stop-color="#797E82"/>
<stop offset="0.0979612" stop-color="#797E82"/>
<stop offset="0.151169" stop-color="#B2B5B7"/>
<stop offset="0.756906" stop-color="#CACDCF"/>
<stop offset="1" stop-color="#CACDCF"/>
</linearGradient>
<linearGradient id="paint2_linear" x1="245.756" y1="314.902" x2="327.674" y2="314.902" gradientUnits="userSpaceOnUse">
<stop stop-opacity="0.5"/>
<stop offset="0.139373" stop-color="#818487" stop-opacity="0"/>
<stop offset="0.860627" stop-color="#818487" stop-opacity="0"/>
<stop offset="1" stop-opacity="0.5"/>
</linearGradient>
<linearGradient id="paint3_linear" x1="287" y1="320.601" x2="287" y2="328.58" gradientUnits="userSpaceOnUse">
<stop stop-color="#838688"/>
<stop offset="1" stop-color="#17191B"/>
</linearGradient>
</defs>
</svg>
